<svg xmlns:dc="http://purl.org/dc/elements/1.1/" xmlns:cc="http://creativecommons.org/ns#" xmlns:rdf="http://www.w3.org/1999/02/22-rdf-syntax-ns#" xmlns:svg="http://www.w3.org/2000/svg" xmlns="http://www.w3.org/2000/svg" version="1.1" viewBox="0 0 100 125" x="0px" y="0px"><g transform="translate(0,-952.36216)"><path d="m 39.847034,957.36216 c -0.600013,0.41739 -1.203187,0.84895 -1.803201,1.29244 -0.600013,0.4435 -1.226427,0.84726 -1.878719,1.21249 -0.469577,0.28695 -0.952208,0.50976 -1.447868,0.66621 -0.49566,0.15645 -0.987773,0.35146 -1.483433,0.58625 -1.930475,0.91308 -3.772765,1.96668 -5.520617,3.16671 -0.756531,-1.27828 -1.786827,-2.28081 -3.091207,-3.01126 -1.278297,-0.73047 -2.661265,-1.09701 -4.148245,-1.09701 -1.173944,0 -2.269208,0.22262 -3.286611,0.66621 -1.017403,0.44349 -1.903847,1.0561 -2.660378,1.83872 -0.756532,0.75653 -1.355271,1.64299 -1.798766,2.6604 -0.443518,1.01742 -0.666187,2.11266 -0.666187,3.28661 0,0.8348 0.115974,1.64679 0.350853,2.42943 0.260894,0.78264 0.613566,1.51134 1.057061,2.1896 l 0,0.31533 c -0.886967,0.8087 -1.578462,1.76013 -2.074122,2.8558 -0.49566,1.09568 -0.741728,2.24204 -0.741705,3.44206 l 0,7.78574 c -0.7043895,0.62609 -1.2519875,1.29426 -1.6433175,1.99862 -0.391307,0.70437 -0.679034,1.44694 -0.861635,2.22957 -0.182601,0.75654 -0.298779,1.5502 -0.350853,2.385 -0.02547,0.80872 -0.04002,1.65794 -0.04002,2.54491 0,1.0174 0.02774,2.0105 0.07982,2.97573 0.07823,0.96528 0.259348,1.87498 0.546302,2.73588 0.286953,0.8348 0.704616,1.619 1.252464,2.3495 0.5739315,0.7304 1.3537255,1.3847 2.3450455,1.9586 0.469578,1.8001 1.072752,3.559 1.8032,5.2808 0.730449,1.6957 1.575234,3.3386 2.540471,4.93 -0.05208,0.3391 -0.08937,0.664 -0.115519,0.9771 l 0,0.9815 c 0,0.5739 0.01364,1.1449 0.04002,1.7188 0.02547,0.5739 0.04002,1.1493 0.04002,1.7233 -1.878288,2.2174 -3.289021,4.6584 -4.228176,7.3193 -0.939156,2.6349 -1.407983,5.3869 -1.407914,8.2566 l 0,9.3491 78.732209,0 0,-9.3491 c 0,-2.8436 -0.48265,-5.5956 -1.44789,-8.2566 -0.96524,-2.687 -2.34821,-5.128 -4.14825,-7.3193 0,-0.5218 0.0137,-1.0416 0.04,-1.5634 0.0255,-0.5478 0.04,-1.086 0.04,-1.6078 0,-0.3652 -0.0137,-0.7273 -0.04,-1.0926 -0.0262,-0.3913 -0.0678,-0.7717 -0.11984,-1.1369 0.99132,-1.5653 1.84054,-3.2082 2.5449,-4.93 0.73047,-1.7218 1.32919,-3.4807 1.79875,-5.2808 1.0435,-0.6 1.841631,-1.282 2.38947,-2.0386 0.57393,-0.7565 0.9916,-1.5779 1.25247,-2.4649 0.26082,-0.887 0.41427,-1.8106 0.46632,-2.77588 0.0521,-0.99134 0.08,-2.02159 0.08,-3.09118 0,-1.01741 -0.0373,-1.99663 -0.11552,-2.93576 -0.0521,-0.93916 -0.22376,-1.81168 -0.51076,-2.6204 -0.28698,-0.83481 -0.71851,-1.60516 -1.29244,-2.30953 -0.54783,-0.70436 -1.30431,-1.34474 -2.26955,-1.91867 -1.33046,-4.95663 -3.4932,-9.44433 -6.49327,-13.4618 -2.97398,-4.01747 -6.64023,-7.36825 -10.99684,-10.05526 -0.67829,-0.44349 -1.38365,-0.84728 -2.1141,-1.21251 -0.70437,-0.39133 -1.43307,-0.74398 -2.1896,-1.05704 -0.36522,-0.15667 -0.74568,-0.3005 -1.13699,-0.4308 -0.39133,-0.13053 -0.76733,-0.30201 -1.13256,-0.51076 -0.67828,-0.36523 -1.33253,-0.76902 -1.95865,-1.21251 -0.59996,-0.46958 -1.21262,-0.92445 -1.83872,-1.36794 l -20.345915,0 z m 1.71879,5.63611 16.908313,0 0,14.90969 c -1.40873,-0.28702 -2.81944,-0.49593 -4.22817,-0.62623 -1.40871,-0.15645 -2.81947,-0.2354 -4.2282,-0.2354 -1.408712,0 -2.815012,0.0789 -4.223744,0.2354 -1.40871,0.13053 -2.819421,0.33928 -4.228199,0.62623 l 0,-14.90969 z m -21.09208,2.81583 c 0.782636,0 1.450801,0.27381 1.998626,0.82166 0.547848,0.54782 0.821658,1.21153 0.821658,1.99417 0,0.52174 -0.130071,0.99496 -0.390852,1.41235 -0.234789,0.41741 -0.573567,0.75621 -1.017061,1.01708 l 0,5.98697 -2.820285,0 0,-5.98697 c -0.417413,-0.26087 -0.756191,-0.59967 -1.017062,-1.01708 -0.234834,-0.4435 -0.350876,-0.91669 -0.350876,-1.41235 0,-0.75653 0.273833,-1.40637 0.821659,-1.95422 0.547825,-0.57393 1.197661,-0.86161 1.954193,-0.86161 z m 15.47375,0.24427 0,13.39963 c -3.241336,1.11514 -6.315829,2.57456 -9.211405,4.39695 -3.704433,2.34787 -7.08298,5.12324 -10.135212,8.33201 -0.104603,0.75653 -0.183283,1.51302 -0.235402,2.26955 -0.05207,0.75653 -0.0755,1.51302 -0.0755,2.26955 0.469578,-0.57393 0.952231,-1.13101 1.447891,-1.67884 0.49566,-0.54785 1.001621,-1.08603 1.523387,-1.60777 -0.05207,0.54782 -0.08937,1.09544 -0.115519,1.64329 -0.02547,0.54783 -0.04002,1.09549 -0.04002,1.64332 0,3.18269 0.468759,6.30134 1.407914,9.35354 0.965238,3.0261 2.3621,5.8432 4.188222,8.4519 l 0,1.8787 24.494166,0 c -2.634843,-0.1305 -5.099182,-0.7292 -7.394881,-1.7987 -2.2957,-1.0696 -4.291279,-2.4898 -5.986966,-4.2638 -1.695686,-1.7739 -3.037018,-3.825 -4.028338,-6.1468 -0.965238,-2.3479 -1.447891,-4.84944 -1.447891,-7.51038 l 0,-5.59612 c 2.504406,0 4.61605,-0.6404 6.337841,-1.91867 1.747852,-1.30438 3.181917,-3.02615 4.303695,-5.16533 0.260917,-0.46958 0.441926,-0.90113 0.546302,-1.29244 0.573931,1.14784 1.265404,2.08983 2.074123,2.82028 0.808719,0.73045 1.699575,1.3014 2.664813,1.71882 0.965237,0.41739 1.995533,0.70516 3.091202,0.86161 1.12178,0.1303 2.28202,0.19533 3.48204,0.19533 l 0,-5.63609 c 0.8087,1.72177 1.81123,3.13251 3.01126,4.22818 1.2,1.06959 2.53187,1.91881 3.99277,2.54491 1.48698,0.62609 3.06492,1.05321 4.73452,1.288 1.69569,0.23484 3.40356,0.35531 5.12533,0.35531 l 0,5.79154 c 0,0.93913 -0.15781,1.83947 -0.47078,2.70036 -0.31304,0.86089 -0.74016,1.64069 -1.28801,2.34509 -0.54782,0.7043 -1.20209,1.3169 -1.95862,1.8387 -0.75654,0.4957 -1.57801,0.8622 -2.46498,1.097 -0.26087,-0.3652 -0.58578,-0.639 -0.97711,-0.8216 -0.3913,-0.1826 -0.80897,-0.2754 -1.25246,-0.2754 -0.78264,0 -1.45078,0.2738 -1.9986,0.8216 -0.54783,0.5479 -0.82166,1.216 -0.82166,1.9987 0,0.7826 0.27383,1.4463 0.82166,1.9941 0.54782,0.5479 1.21596,0.8217 1.9986,0.8217 0.57393,0 1.09379,-0.1578 1.56336,-0.4708 0.46958,-0.3131 0.80834,-0.7307 1.01709,-1.2525 0.60001,-0.1305 1.1754,-0.3115 1.72324,-0.5463 0.57393,-0.2347 1.12158,-0.5225 1.64332,-0.8616 -0.8348,1.487 -1.83731,2.8328 -3.01125,4.0328 -1.17395,1.2 -2.46859,2.2442 -3.87733,3.1312 -1.40871,0.8869 -2.92163,1.5879 -4.53907,2.1096 -1.59133,0.4957 -3.23424,0.7834 -4.92993,0.8616 l 24.45865,0 0,-1.8787 c 1.80004,-2.6087 3.183,-5.4257 4.14824,-8.4519 0.99132,-3.0261 1.48785,-6.11699 1.48785,-9.27358 0,-0.57393 -0.0277,-1.13544 -0.08,-1.68329 -0.0262,-0.54783 -0.0634,-1.10934 -0.11552,-1.68327 0.52175,0.52174 1.02773,1.05992 1.52339,1.60777 0.49566,0.54783 0.99218,1.10491 1.48784,1.67884 0,-0.75653 -0.0373,-1.51302 -0.11551,-2.26955 -0.0523,-0.75653 -0.13099,-1.513 -0.23538,-2.26953 -3.02615,-3.20877 -6.4047,-5.98417 -10.13522,-8.33203 -2.89368,-1.82119 -5.95685,-3.2814 -9.18032,-4.39695 l 0,-13.33744 c 1.80477,0.83069 3.52502,1.80095 5.14755,2.94017 2.47833,1.72177 4.65942,3.71737 6.5377,5.98699 1.9044,2.26962 3.49618,4.77559 4.77448,7.51479 1.30438,2.71309 2.21411,5.5718 2.73588,8.57187 0.86088,0 1.61737,0.23215 2.26954,0.70173 0.65221,0.44349 0.98155,1.13496 0.98155,2.07412 l -0.005,0 0,5.63609 c 0,0.99127 -0.31104,1.70617 -0.93713,2.14967 -0.6261,0.4435 -1.39648,0.6662 -2.30953,0.6662 -0.41741,2.5827 -1.10888,5.0886 -2.07412,7.5148 -0.93916,2.4261 -2.16435,4.6955 -3.67744,6.8086 0.39142,0.313 0.58626,0.689 0.58626,1.1325 l 0,4.2282 -56.267762,0 0,-4.2282 c 0,-0.4435 0.194881,-0.8194 0.586256,-1.1325 -1.48698,-2.1131 -2.71666,-4.3825 -3.681897,-6.8086 -0.965238,-2.4262 -1.652299,-4.9321 -2.069689,-7.5148 -0.886967,0 -1.657301,-0.2322 -2.309502,-0.7018 -0.626096,-0.4695 -0.941566,-1.1749 -0.941566,-2.11407 l 0,-5.63609 c 0,-0.78264 0.27381,-1.43247 0.821636,-1.95422 0.57393,-0.54784 1.242095,-0.82163 1.998626,-0.82163 l 0,-11.27223 4.499121,0 c 2.034829,-3.49572 4.5919,-6.52158 7.670236,-9.07815 2.293312,-1.92408 4.789441,-3.49654 7.488159,-4.72563 z m -14.296782,58.80373 3.037905,0 0,16.8684 -8.398639,0 0,-3.7174 c 0,-2.4784 0.454865,-4.8545 1.367938,-7.1239 0.939155,-2.2436 2.271027,-4.2531 3.992796,-6.0271 z m 8.68732,0 39.363895,0 0,16.8684 -39.363895,0 0,-16.8684 z m 45.008885,0 3.04233,0 c 1.48698,1.5131 2.6889,3.2488 3.60197,5.2053 0.91305,1.9306 1.47452,3.954 1.683269,6.067 -0.756529,0 -1.475789,0.1432 -2.15405,0.4309 -0.67829,0.3129 -1.26757,0.7168 -1.76323,1.2125 -0.495659,0.5216 -0.88558,1.1204 -1.17253,1.7987 -0.286949,0.6781 -0.43081,1.3974 -0.43081,2.154 l -2.80695,0 0,-16.8684 z m -39.377206,5.6362 0,5.6361 11.232226,0 0,-5.6361 -11.232226,0 z m 19.684166,0 c -0.78264,0 -1.44637,0.2738 -1.99419,0.8216 -0.54783,0.5478 -0.82164,1.2116 -0.82164,1.9943 0,0.7565 0.27381,1.4108 0.82164,1.9586 0.57393,0.5739 1.23766,0.8616 1.99419,0.8616 0.75653,0 1.41082,-0.2877 1.95865,-0.8616 0.57393,-0.5478 0.86161,-1.2021 0.86161,-1.9586 0,-0.7827 -0.27824,-1.4465 -0.82609,-1.9943 -0.54783,-0.5478 -1.21153,-0.8216 -1.99417,-0.8216 z m 8.41196,0 c -0.75653,0 -1.40636,0.2738 -1.95421,0.8216 -0.54783,0.5739 -0.82166,1.2377 -0.82166,1.9943 0,0.7565 0.27383,1.4108 0.82166,1.9586 0.54785,0.5739 1.19768,0.8616 1.95421,0.8616 0.75654,0 1.41078,-0.2877 1.95863,-0.8616 0.57393,-0.5478 0.86164,-1.2021 0.86164,-1.9586 0,-0.7827 -0.27384,-1.4465 -0.82166,-1.9943 -0.54785,-0.5478 -1.21599,-0.8216 -1.99861,-0.8216 z" style="" fill="#000000" fill-opacity="1" stroke="none"/></g><text x="0" y="115" fill="#000000" font-size="5px" font-weight="bold" font-family="'Helvetica Neue', Helvetica, Arial-Unicode, Arial, Sans-serif">Created by Naveen Cs</text><text x="0" y="120" fill="#000000" font-size="5px" font-weight="bold" font-family="'Helvetica Neue', Helvetica, Arial-Unicode, Arial, Sans-serif">from the Noun Project</text></svg>